<svg width="500" height="209" fill="none" xmlns="http://www.w3.org/2000/svg"><path fill="#fff" d="M0 0h500v209H0z"/><path d="M156.578 69.138h9.047v48.328c0 6.531-1.969 11.641-5.906 15.328-3.907 3.688-9.125 5.532-15.657 5.532-6.781 0-12.062-1.735-15.843-5.204-3.781-3.468-5.672-8.328-5.672-14.578h9c0 3.907 1.062 6.953 3.187 9.141 2.157 2.187 5.266 3.281 9.328 3.281 3.719 0 6.719-1.172 9-3.515 2.313-2.344 3.485-5.625 3.516-9.844V69.138zm74.578 46.594c-.844 7.219-3.515 12.797-8.015 16.734-4.469 3.906-10.422 5.86-17.86 5.86-8.062 0-14.531-2.891-19.406-8.672-4.844-5.782-7.266-13.516-7.266-23.203v-6.563c0-6.344 1.125-11.922 3.375-16.734 2.282-4.813 5.5-8.5 9.657-11.063 4.156-2.594 8.968-3.89 14.437-3.89 7.25 0 13.063 2.03 17.438 6.093 4.375 4.032 6.922 9.625 7.64 16.782h-9.047c-.781-5.438-2.484-9.375-5.109-11.813-2.594-2.438-6.234-3.656-10.922-3.656-5.75 0-10.266 2.125-13.547 6.375-3.25 4.25-4.875 10.297-4.875 18.14v6.61c0 7.406 1.547 13.297 4.641 17.672 3.094 4.375 7.422 6.562 12.984 6.562 5 0 8.828-1.125 11.485-3.375 2.687-2.281 4.468-6.234 5.343-11.859h9.047zm21.328-5.063v26.719h-9v-68.25h25.172c7.469 0 13.313 1.906 17.532 5.719 4.25 3.812 6.374 8.86 6.374 15.14 0 6.625-2.078 11.735-6.234 15.329-4.125 3.562-10.047 5.343-17.766 5.343h-16.078zm0-7.359h16.172c4.813 0 8.5-1.125 11.063-3.375 2.562-2.281 3.843-5.563 3.843-9.844 0-4.062-1.281-7.312-3.843-9.75-2.563-2.437-6.078-3.703-10.547-3.797h-16.688v26.766zm63.188-34.172l22.312 55.688 22.313-55.688h11.672v68.25h-9V110.81l.843-28.688-22.406 55.266h-6.89l-22.36-55.125.891 28.547v26.578h-9v-68.25h11.625z" fill="#000"/></svg>